<svg width="200" height="200" viewBox="0 0 200 200" xmlns="http://www.w3.org/2000/svg">
  <rect width="200" height="200" fill="#F9FAFB"/>
  <g fill="#3B0A69">
    <!-- QR Code pattern (simplified) -->
    <rect x="20" y="20" width="8" height="8"/>
    <rect x="32" y="20" width="8" height="8"/>
    <rect x="44" y="20" width="8" height="8"/>
    <rect x="56" y="20" width="8" height="8"/>
    <rect x="68" y="20" width="8" height="8"/>
    <rect x="80" y="20" width="8" height="8"/>
    <rect x="92" y="20" width="8" height="8"/>
    <rect x="104" y="20" width="8" height="8"/>
    <rect x="116" y="20" width="8" height="8"/>
    <rect x="128" y="20" width="8" height="8"/>
    <rect x="140" y="20" width="8" height="8"/>
    <rect x="152" y="20" width="8" height="8"/>
    <rect x="164" y="20" width="8" height="8"/>
    <rect x="176" y="20" width="8" height="8"/>
    
    <rect x="20" y="32" width="8" height="8"/>
    <rect x="44" y="32" width="8" height="8"/>
    <rect x="68" y="32" width="8" height="8"/>
    <rect x="92" y="32" width="8" height="8"/>
    <rect x="116" y="32" width="8" height="8"/>
    <rect x="140" y="32" width="8" height="8"/>
    <rect x="164" y="32" width="8" height="8"/>
    
    <rect x="20" y="44" width="8" height="8"/>
    <rect x="32" y="44" width="8" height="8"/>
    <rect x="44" y="44" width="8" height="8"/>
    <rect x="56" y="44" width="8" height="8"/>
    <rect x="68" y="44" width="8" height="8"/>
    <rect x="80" y="44" width="8" height="8"/>
    <rect x="92" y="44" width="8" height="8"/>
    <rect x="104" y="44" width="8" height="8"/>
    <rect x="116" y="44" width="8" height="8"/>
    <rect x="128" y="44" width="8" height="8"/>
    <rect x="140" y="44" width="8" height="8"/>
    <rect x="152" y="44" width="8" height="8"/>
    <rect x="164" y="44" width="8" height="8"/>
    <rect x="176" y="44" width="8" height="8"/>
    
    <rect x="20" y="56" width="8" height="8"/>
    <rect x="44" y="56" width="8" height="8"/>
    <rect x="68" y="56" width="8" height="8"/>
    <rect x="92" y="56" width="8" height="8"/>
    <rect x="116" y="56" width="8" height="8"/>
    <rect x="140" y="56" width="8" height="8"/>
    <rect x="164" y="56" width="8" height="8"/>
    
    <rect x="20" y="68" width="8" height="8"/>
    <rect x="32" y="68" width="8" height="8"/>
    <rect x="44" y="68" width="8" height="8"/>
    <rect x="56" y="68" width="8" height="8"/>
    <rect x="68" y="68" width="8" height="8"/>
    <rect x="80" y="68" width="8" height="8"/>
    <rect x="92" y="68" width="8" height="8"/>
    <rect x="104" y="68" width="8" height="8"/>
    <rect x="116" y="68" width="8" height="8"/>
    <rect x="128" y="68" width="8" height="8"/>
    <rect x="140" y="68" width="8" height="8"/>
    <rect x="152" y="68" width="8" height="8"/>
    <rect x="164" y="68" width="8" height="8"/>
    <rect x="176" y="68" width="8" height="8"/>
    
    <rect x="20" y="80" width="8" height="8"/>
    <rect x="44" y="80" width="8" height="8"/>
    <rect x="68" y="80" width="8" height="8"/>
    <rect x="92" y="80" width="8" height="8"/>
    <rect x="116" y="80" width="8" height="8"/>
    <rect x="140" y="80" width="8" height="8"/>
    <rect x="164" y="80" width="8" height="8"/>
    
    <rect x="20" y="92" width="8" height="8"/>
    <rect x="32" y="92" width="8" height="8"/>
    <rect x="44" y="92" width="8" height="8"/>
    <rect x="56" y="92" width="8" height="8"/>
    <rect x="68" y="92" width="8" height="8"/>
    <rect x="80" y="92" width="8" height="8"/>
    <rect x="92" y="92" width="8" height="8"/>
    <rect x="104" y="92" width="8" height="8"/>
    <rect x="116" y="92" width="8" height="8"/>
    <rect x="128" y="92" width="8" height="8"/>
    <rect x="140" y="92" width="8" height="8"/>
    <rect x="152" y="92" width="8" height="8"/>
    <rect x="164" y="92" width="8" height="8"/>
    <rect x="176" y="92" width="8" height="8"/>
    
    <rect x="20" y="104" width="8" height="8"/>
    <rect x="44" y="104" width="8" height="8"/>
    <rect x="68" y="104" width="8" height="8"/>
    <rect x="92" y="104" width="8" height="8"/>
    <rect x="116" y="104" width="8" height="8"/>
    <rect x="140" y="104" width="8" height="8"/>
    <rect x="164" y="104" width="8" height="8"/>
    
    <rect x="20" y="116" width="8" height="8"/>
    <rect x="32" y="116" width="8" height="8"/>
    <rect x="44" y="116" width="8" height="8"/>
    <rect x="56" y="116" width="8" height="8"/>
    <rect x="68" y="116" width="8" height="8"/>
    <rect x="80" y="116" width="8" height="8"/>
    <rect x="92" y="116" width="8" height="8"/>
    <rect x="104" y="116" width="8" height="8"/>
    <rect x="116" y="116" width="8" height="8"/>
    <rect x="128" y="116" width="8" height="8"/>
    <rect x="140" y="116" width="8" height="8"/>
    <rect x="152" y="116" width="8" height="8"/>
    <rect x="164" y="116" width="8" height="8"/>
    <rect x="176" y="116" width="8" height="8"/>
    
    <rect x="20" y="128" width="8" height="8"/>
    <rect x="44" y="128" width="8" height="8"/>
    <rect x="68" y="128" width="8" height="8"/>
    <rect x="92" y="128" width="8" height="8"/>
    <rect x="116" y="128" width="8" height="8"/>
    <rect x="140" y="128" width="8" height="8"/>
    <rect x="164" y="128" width="8" height="8"/>
    
    <rect x="20" y="140" width="8" height="8"/>
    <rect x="32" y="140" width="8" height="8"/>
    <rect x="44" y="140" width="8" height="8"/>
    <rect x="56" y="140" width="8" height="8"/>
    <rect x="68" y="140" width="8" height="8"/>
    <rect x="80" y="140" width="8" height="8"/>
    <rect x="92" y="140" width="8" height="8"/>
    <rect x="104" y="140" width="8" height="8"/>
    <rect x="116" y="140" width="8" height="8"/>
    <rect x="128" y="140" width="8" height="8"/>
    <rect x="140" y="140" width="8" height="8"/>
    <rect x="152" y="140" width="8" height="8"/>
    <rect x="164" y="140" width="8" height="8"/>
    <rect x="176" y="140" width="8" height="8"/>
    
    <rect x="20" y="152" width="8" height="8"/>
    <rect x="44" y="152" width="8" height="8"/>
    <rect x="68" y="152" width="8" height="8"/>
    <rect x="92" y="152" width="8" height="8"/>
    <rect x="116" y="152" width="8" height="8"/>
    <rect x="140" y="152" width="8" height="8"/>
    <rect x="164" y="152" width="8" height="8"/>
    
    <rect x="20" y="164" width="8" height="8"/>
    <rect x="32" y="164" width="8" height="8"/>
    <rect x="44" y="164" width="8" height="8"/>
    <rect x="56" y="164" width="8" height="8"/>
    <rect x="68" y="164" width="8" height="8"/>
    <rect x="80" y="164" width="8" height="8"/>
    <rect x="92" y="164" width="8" height="8"/>
    <rect x="104" y="164" width="8" height="8"/>
    <rect x="116" y="164" width="8" height="8"/>
    <rect x="128" y="164" width="8" height="8"/>
    <rect x="140" y="164" width="8" height="8"/>
    <rect x="152" y="164" width="8" height="8"/>
    <rect x="164" y="164" width="8" height="8"/>
    <rect x="176" y="164" width="8" height="8"/>
    
    <rect x="20" y="176" width="8" height="8"/>
    <rect x="44" y="176" width="8" height="8"/>
    <rect x="68" y="176" width="8" height="8"/>
    <rect x="92" y="176" width="8" height="8"/>
    <rect x="116" y="176" width="8" height="8"/>
    <rect x="140" y="176" width="8" height="8"/>
    <rect x="164" y="176" width="8" height="8"/>
  </g>
  
  <!-- Center logo placeholder -->
  <circle cx="100" cy="100" r="15" fill="#FFD700"/>
  <text x="100" y="105" text-anchor="middle" font-family="Arial" font-size="12" font-weight="bold" fill="#3B0A69">TE</text>
</svg> 